<svg xmlns="http://www.w3.org/2000/svg" viewBox="0 0 1440 320"><path fill="#222831" fill-opacity="1" d="M0,128L24,128C48,128,96,128,144,144C192,160,240,192,288,202.7C336,213,384,203,432,186.7C480,171,528,149,576,133.3C624,117,672,107,720,122.7C768,139,816,181,864,192C912,203,960,181,1008,192C1056,203,1104,245,1152,234.7C1200,224,1248,160,1296,154.7C1344,149,1392,203,1416,229.3L1440,256L1440,320L1416,320C1392,320,1344,320,1296,320C1248,320,1200,320,1152,320C1104,320,1056,320,1008,320C960,320,912,320,864,320C816,320,768,320,720,320C672,320,624,320,576,320C528,320,480,320,432,320C384,320,336,320,288,320C240,320,192,320,144,320C96,320,48,320,24,320L0,320Z"></path></svg>
